<mxfile host="app.diagrams.net" modified="2024-05-31T23:24:13.865Z" agent="Mozilla/5.0 (Macintosh; Intel Mac OS X 10_15_7) AppleWebKit/605.1.15 (KHTML, like Gecko) Version/17.5 Safari/605.1.15" etag="C_Q03o3Ipa86JvTfkX7-" version="24.4.11" type="device" pages="2">
  <diagram name="Страница — 1" id="xhDpNmOGnxdcyJgrvS8j">
    <mxGraphModel dx="1194" dy="797" grid="1" gridSize="10" guides="1" tooltips="1" connect="1" arrows="1" fold="1" page="1" pageScale="1" pageWidth="827" pageHeight="1169" math="0" shadow="0">
      <root>
        <mxCell id="0" />
        <mxCell id="1" parent="0" />
      </root>
    </mxGraphModel>
  </diagram>
  <diagram id="TStaP93Pck3riHm6li4P" name="Страница — 2">
    <mxGraphModel dx="823" dy="550" grid="1" gridSize="10" guides="1" tooltips="1" connect="1" arrows="1" fold="1" page="1" pageScale="1" pageWidth="827" pageHeight="1169" math="0" shadow="0">
      <root>
        <mxCell id="0" />
        <mxCell id="1" parent="0" />
        <mxCell id="XcTHDWZO11dN2jByse7Z-2" value=": User" style="html=1;whiteSpace=wrap;" vertex="1" parent="1">
          <mxGeometry x="100" y="80" width="110" height="50" as="geometry" />
        </mxCell>
        <mxCell id="XcTHDWZO11dN2jByse7Z-3" value=": System" style="html=1;whiteSpace=wrap;" vertex="1" parent="1">
          <mxGeometry x="260" y="80" width="110" height="50" as="geometry" />
        </mxCell>
        <mxCell id="XcTHDWZO11dN2jByse7Z-4" value=": Restaurant" style="html=1;whiteSpace=wrap;" vertex="1" parent="1">
          <mxGeometry x="413.5" y="80" width="110" height="50" as="geometry" />
        </mxCell>
        <mxCell id="XcTHDWZO11dN2jByse7Z-5" value=": Courier" style="html=1;whiteSpace=wrap;" vertex="1" parent="1">
          <mxGeometry x="570" y="80" width="110" height="50" as="geometry" />
        </mxCell>
        <mxCell id="XcTHDWZO11dN2jByse7Z-6" value="" style="endArrow=none;dashed=1;html=1;rounded=0;entryX=0.5;entryY=1;entryDx=0;entryDy=0;" edge="1" parent="1" source="XcTHDWZO11dN2jByse7Z-11" target="XcTHDWZO11dN2jByse7Z-2">
          <mxGeometry width="50" height="50" relative="1" as="geometry">
            <mxPoint x="155" y="820.8333333333334" as="sourcePoint" />
            <mxPoint x="440" y="320" as="targetPoint" />
          </mxGeometry>
        </mxCell>
        <mxCell id="XcTHDWZO11dN2jByse7Z-7" value="" style="endArrow=none;dashed=1;html=1;rounded=0;entryX=0.5;entryY=1;entryDx=0;entryDy=0;" edge="1" parent="1" source="XcTHDWZO11dN2jByse7Z-15" target="XcTHDWZO11dN2jByse7Z-3">
          <mxGeometry width="50" height="50" relative="1" as="geometry">
            <mxPoint x="315" y="820" as="sourcePoint" />
            <mxPoint x="165" y="140" as="targetPoint" />
          </mxGeometry>
        </mxCell>
        <mxCell id="XcTHDWZO11dN2jByse7Z-9" value="" style="endArrow=none;dashed=1;html=1;rounded=0;entryX=0.5;entryY=1;entryDx=0;entryDy=0;" edge="1" parent="1" source="XcTHDWZO11dN2jByse7Z-23" target="XcTHDWZO11dN2jByse7Z-4">
          <mxGeometry width="50" height="50" relative="1" as="geometry">
            <mxPoint x="469" y="820" as="sourcePoint" />
            <mxPoint x="440" y="130" as="targetPoint" />
          </mxGeometry>
        </mxCell>
        <mxCell id="XcTHDWZO11dN2jByse7Z-10" value="" style="endArrow=none;dashed=1;html=1;rounded=0;entryX=0.5;entryY=1;entryDx=0;entryDy=0;" edge="1" parent="1" source="XcTHDWZO11dN2jByse7Z-28" target="XcTHDWZO11dN2jByse7Z-5">
          <mxGeometry width="50" height="50" relative="1" as="geometry">
            <mxPoint x="625" y="820" as="sourcePoint" />
            <mxPoint x="440" y="150" as="targetPoint" />
          </mxGeometry>
        </mxCell>
        <mxCell id="XcTHDWZO11dN2jByse7Z-13" value="" style="endArrow=none;dashed=1;html=1;rounded=0;entryX=0.5;entryY=1;entryDx=0;entryDy=0;" edge="1" parent="1" source="XcTHDWZO11dN2jByse7Z-35" target="XcTHDWZO11dN2jByse7Z-11">
          <mxGeometry width="50" height="50" relative="1" as="geometry">
            <mxPoint x="155" y="820.8333333333334" as="sourcePoint" />
            <mxPoint x="155" y="130" as="targetPoint" />
          </mxGeometry>
        </mxCell>
        <mxCell id="XcTHDWZO11dN2jByse7Z-11" value="" style="rounded=0;whiteSpace=wrap;html=1;fillColor=#dae8fc;strokeColor=#6c8ebf;" vertex="1" parent="1">
          <mxGeometry x="150" y="160" width="10" height="250" as="geometry" />
        </mxCell>
        <mxCell id="XcTHDWZO11dN2jByse7Z-16" value="" style="endArrow=none;dashed=1;html=1;rounded=0;entryX=0.5;entryY=1;entryDx=0;entryDy=0;" edge="1" parent="1" source="XcTHDWZO11dN2jByse7Z-19" target="XcTHDWZO11dN2jByse7Z-15">
          <mxGeometry width="50" height="50" relative="1" as="geometry">
            <mxPoint x="315" y="820" as="sourcePoint" />
            <mxPoint x="315" y="130" as="targetPoint" />
          </mxGeometry>
        </mxCell>
        <mxCell id="XcTHDWZO11dN2jByse7Z-15" value="" style="rounded=0;whiteSpace=wrap;html=1;fillColor=#dae8fc;strokeColor=#6c8ebf;" vertex="1" parent="1">
          <mxGeometry x="310" y="180" width="10" height="30" as="geometry" />
        </mxCell>
        <mxCell id="XcTHDWZO11dN2jByse7Z-17" value="choose Restaurant" style="html=1;verticalAlign=bottom;endArrow=block;curved=0;rounded=0;entryX=0.5;entryY=0;entryDx=0;entryDy=0;" edge="1" parent="1" target="XcTHDWZO11dN2jByse7Z-15">
          <mxGeometry width="80" relative="1" as="geometry">
            <mxPoint x="160" y="180" as="sourcePoint" />
            <mxPoint x="440" y="260" as="targetPoint" />
          </mxGeometry>
        </mxCell>
        <mxCell id="XcTHDWZO11dN2jByse7Z-18" value="return Restaurant menu" style="html=1;verticalAlign=bottom;endArrow=open;dashed=1;endSize=8;curved=0;rounded=0;exitX=0;exitY=1;exitDx=0;exitDy=0;entryX=1.252;entryY=0.2;entryDx=0;entryDy=0;entryPerimeter=0;" edge="1" parent="1" source="XcTHDWZO11dN2jByse7Z-15" target="XcTHDWZO11dN2jByse7Z-11">
          <mxGeometry relative="1" as="geometry">
            <mxPoint x="440" y="260" as="sourcePoint" />
            <mxPoint x="360" y="260" as="targetPoint" />
          </mxGeometry>
        </mxCell>
        <mxCell id="XcTHDWZO11dN2jByse7Z-20" value="" style="endArrow=none;dashed=1;html=1;rounded=0;entryX=0.5;entryY=1;entryDx=0;entryDy=0;" edge="1" parent="1" target="XcTHDWZO11dN2jByse7Z-19">
          <mxGeometry width="50" height="50" relative="1" as="geometry">
            <mxPoint x="315" y="550" as="sourcePoint" />
            <mxPoint x="315" y="210" as="targetPoint" />
          </mxGeometry>
        </mxCell>
        <mxCell id="XcTHDWZO11dN2jByse7Z-19" value="" style="rounded=0;whiteSpace=wrap;html=1;fillColor=#dae8fc;strokeColor=#6c8ebf;" vertex="1" parent="1">
          <mxGeometry x="310" y="250" width="10" height="160" as="geometry" />
        </mxCell>
        <mxCell id="XcTHDWZO11dN2jByse7Z-21" value="order food" style="html=1;verticalAlign=bottom;endArrow=block;curved=0;rounded=0;entryX=0;entryY=0;entryDx=0;entryDy=0;" edge="1" parent="1" target="XcTHDWZO11dN2jByse7Z-19">
          <mxGeometry width="80" relative="1" as="geometry">
            <mxPoint x="163" y="250" as="sourcePoint" />
            <mxPoint x="440" y="260" as="targetPoint" />
          </mxGeometry>
        </mxCell>
        <mxCell id="XcTHDWZO11dN2jByse7Z-22" value="create a request" style="html=1;verticalAlign=bottom;endArrow=block;curved=0;rounded=0;exitX=1.045;exitY=0.19;exitDx=0;exitDy=0;entryX=0;entryY=0;entryDx=0;entryDy=0;exitPerimeter=0;" edge="1" parent="1" source="XcTHDWZO11dN2jByse7Z-19" target="XcTHDWZO11dN2jByse7Z-23">
          <mxGeometry width="80" relative="1" as="geometry">
            <mxPoint x="360" y="260" as="sourcePoint" />
            <mxPoint x="440" y="260" as="targetPoint" />
          </mxGeometry>
        </mxCell>
        <mxCell id="XcTHDWZO11dN2jByse7Z-24" value="" style="endArrow=none;dashed=1;html=1;rounded=0;entryX=0.5;entryY=1;entryDx=0;entryDy=0;" edge="1" parent="1" target="XcTHDWZO11dN2jByse7Z-23">
          <mxGeometry width="50" height="50" relative="1" as="geometry">
            <mxPoint x="470" y="550" as="sourcePoint" />
            <mxPoint x="469" y="130" as="targetPoint" />
          </mxGeometry>
        </mxCell>
        <mxCell id="XcTHDWZO11dN2jByse7Z-23" value="" style="rounded=0;whiteSpace=wrap;html=1;fillColor=#dae8fc;strokeColor=#6c8ebf;" vertex="1" parent="1">
          <mxGeometry x="463.5" y="280" width="10" height="90" as="geometry" />
        </mxCell>
        <mxCell id="XcTHDWZO11dN2jByse7Z-27" value="give to courier" style="html=1;verticalAlign=bottom;endArrow=block;curved=0;rounded=0;entryX=0;entryY=0;entryDx=0;entryDy=0;exitX=0.936;exitY=0.349;exitDx=0;exitDy=0;exitPerimeter=0;" edge="1" parent="1" source="XcTHDWZO11dN2jByse7Z-23" target="XcTHDWZO11dN2jByse7Z-28">
          <mxGeometry width="80" relative="1" as="geometry">
            <mxPoint x="474" y="340" as="sourcePoint" />
            <mxPoint x="580" y="310" as="targetPoint" />
          </mxGeometry>
        </mxCell>
        <mxCell id="XcTHDWZO11dN2jByse7Z-29" value="" style="endArrow=none;dashed=1;html=1;rounded=0;entryX=0.5;entryY=1;entryDx=0;entryDy=0;" edge="1" parent="1" target="XcTHDWZO11dN2jByse7Z-28">
          <mxGeometry width="50" height="50" relative="1" as="geometry">
            <mxPoint x="625" y="550" as="sourcePoint" />
            <mxPoint x="625" y="130" as="targetPoint" />
          </mxGeometry>
        </mxCell>
        <mxCell id="XcTHDWZO11dN2jByse7Z-28" value="" style="rounded=0;whiteSpace=wrap;html=1;fillColor=#dae8fc;strokeColor=#6c8ebf;" vertex="1" parent="1">
          <mxGeometry x="620" y="310" width="10" height="170" as="geometry" />
        </mxCell>
        <mxCell id="XcTHDWZO11dN2jByse7Z-30" value="return order status" style="html=1;verticalAlign=bottom;endArrow=open;dashed=1;endSize=8;curved=0;rounded=0;exitX=-0.369;exitY=0.17;exitDx=0;exitDy=0;entryX=1.143;entryY=0.655;entryDx=0;entryDy=0;entryPerimeter=0;exitPerimeter=0;" edge="1" parent="1" source="XcTHDWZO11dN2jByse7Z-28" target="XcTHDWZO11dN2jByse7Z-23">
          <mxGeometry relative="1" as="geometry">
            <mxPoint x="440" y="260" as="sourcePoint" />
            <mxPoint x="360" y="260" as="targetPoint" />
          </mxGeometry>
        </mxCell>
        <mxCell id="XcTHDWZO11dN2jByse7Z-31" value="return order info" style="html=1;verticalAlign=bottom;endArrow=open;dashed=1;endSize=8;curved=0;rounded=0;entryX=1.459;entryY=0.759;entryDx=0;entryDy=0;exitX=0.25;exitY=1;exitDx=0;exitDy=0;entryPerimeter=0;" edge="1" parent="1" source="XcTHDWZO11dN2jByse7Z-23" target="XcTHDWZO11dN2jByse7Z-19">
          <mxGeometry relative="1" as="geometry">
            <mxPoint x="460" y="340" as="sourcePoint" />
            <mxPoint x="360" y="260" as="targetPoint" />
          </mxGeometry>
        </mxCell>
        <mxCell id="XcTHDWZO11dN2jByse7Z-32" value="make food" style="html=1;verticalAlign=bottom;endArrow=block;curved=0;rounded=0;exitX=1;exitY=0;exitDx=0;exitDy=0;entryX=1.074;entryY=0.142;entryDx=0;entryDy=0;entryPerimeter=0;" edge="1" parent="1" source="XcTHDWZO11dN2jByse7Z-23" target="XcTHDWZO11dN2jByse7Z-23">
          <mxGeometry width="80" relative="1" as="geometry">
            <mxPoint x="360" y="260" as="sourcePoint" />
            <mxPoint x="530" y="260" as="targetPoint" />
            <Array as="points">
              <mxPoint x="520" y="280" />
            </Array>
          </mxGeometry>
        </mxCell>
        <mxCell id="XcTHDWZO11dN2jByse7Z-33" value="return info" style="html=1;verticalAlign=bottom;endArrow=open;dashed=1;endSize=8;curved=0;rounded=0;exitX=0;exitY=1;exitDx=0;exitDy=0;entryX=1;entryY=1;entryDx=0;entryDy=0;" edge="1" parent="1" source="XcTHDWZO11dN2jByse7Z-19" target="XcTHDWZO11dN2jByse7Z-11">
          <mxGeometry relative="1" as="geometry">
            <mxPoint x="440" y="260" as="sourcePoint" />
            <mxPoint x="360" y="260" as="targetPoint" />
          </mxGeometry>
        </mxCell>
        <mxCell id="XcTHDWZO11dN2jByse7Z-34" value="deliver an order" style="html=1;verticalAlign=bottom;endArrow=open;dashed=1;endSize=8;curved=0;rounded=0;exitX=0;exitY=1;exitDx=0;exitDy=0;entryX=1;entryY=0;entryDx=0;entryDy=0;" edge="1" parent="1" source="XcTHDWZO11dN2jByse7Z-28" target="XcTHDWZO11dN2jByse7Z-35">
          <mxGeometry relative="1" as="geometry">
            <mxPoint x="440" y="310" as="sourcePoint" />
            <mxPoint x="180" y="480" as="targetPoint" />
          </mxGeometry>
        </mxCell>
        <mxCell id="XcTHDWZO11dN2jByse7Z-36" value="" style="endArrow=none;dashed=1;html=1;rounded=0;entryX=0.5;entryY=1;entryDx=0;entryDy=0;" edge="1" parent="1" target="XcTHDWZO11dN2jByse7Z-35">
          <mxGeometry width="50" height="50" relative="1" as="geometry">
            <mxPoint x="155" y="550" as="sourcePoint" />
            <mxPoint x="155" y="410" as="targetPoint" />
          </mxGeometry>
        </mxCell>
        <mxCell id="XcTHDWZO11dN2jByse7Z-35" value="" style="rounded=0;whiteSpace=wrap;html=1;fillColor=#dae8fc;strokeColor=#6c8ebf;" vertex="1" parent="1">
          <mxGeometry x="150" y="480" width="10" height="30" as="geometry" />
        </mxCell>
      </root>
    </mxGraphModel>
  </diagram>
</mxfile>
